<svg xmlns="http://www.w3.org/2000/svg" viewBox="0 0 800 400" fill="none">
  <rect width="800" height="400" rx="12" fill="#0f172a"/>
  <!-- Sidebar -->
  <rect x="0" y="0" width="200" height="400" rx="0" fill="#1e293b"/>
  <rect x="16" y="24" width="120" height="20" rx="4" fill="#7c3aed"/>
  <rect x="16" y="60" width="80" height="12" rx="3" fill="#475569"/>
  <rect x="16" y="84" width="100" height="12" rx="3" fill="#334155"/>
  <rect x="16" y="108" width="90" height="12" rx="3" fill="#334155"/>
  <rect x="16" y="140" width="60" height="12" rx="3" fill="#475569"/>
  <rect x="16" y="164" width="110" height="12" rx="3" fill="#334155"/>
  <rect x="16" y="188" width="95" height="12" rx="3" fill="#334155"/>
  <!-- Agent status dots -->
  <circle cx="24" cy="280" r="5" fill="#22c55e"/>
  <rect x="36" y="274" width="90" height="12" rx="3" fill="#475569"/>
  <circle cx="24" cy="308" r="5" fill="#eab308"/>
  <rect x="36" y="302" width="75" height="12" rx="3" fill="#475569"/>
  <!-- Main content -->
  <rect x="216" y="24" width="400" height="16" rx="3" fill="#334155"/>
  <rect x="216" y="52" width="300" height="12" rx="3" fill="#1e3a5f"/>
  <rect x="216" y="76" width="360" height="12" rx="3" fill="#1e3a5f"/>
  <rect x="216" y="100" width="280" height="12" rx="3" fill="#1e3a5f"/>
  <!-- Agent message -->
  <rect x="216" y="140" width="400" height="80" rx="8" fill="#1e293b" stroke="#7c3aed" stroke-width="1"/>
  <circle cx="240" cy="160" r="12" fill="#7c3aed"/>
  <text x="240" y="165" font-family="monospace" font-size="10" text-anchor="middle" fill="white">A</text>
  <rect x="260" y="152" width="200" height="10" rx="2" fill="#334155"/>
  <rect x="260" y="168" width="280" height="10" rx="2" fill="#475569"/>
  <rect x="260" y="184" width="240" height="10" rx="2" fill="#475569"/>
  <!-- Task card -->
  <rect x="216" y="240" width="180" height="60" rx="6" fill="#1e293b" stroke="#334155" stroke-width="1"/>
  <rect x="228" y="252" width="80" height="10" rx="2" fill="#22c55e"/>
  <rect x="228" y="268" width="140" height="8" rx="2" fill="#475569"/>
  <rect x="228" y="282" width="100" height="8" rx="2" fill="#334155"/>
  <!-- Status label -->
  <rect x="640" y="24" width="140" height="352" rx="8" fill="#1e293b"/>
  <rect x="652" y="36" width="116" height="12" rx="3" fill="#475569"/>
  <rect x="652" y="60" width="80" height="10" rx="2" fill="#334155"/>
  <rect x="652" y="76" width="100" height="10" rx="2" fill="#334155"/>
  <rect x="652" y="92" width="90" height="10" rx="2" fill="#334155"/>
  <circle cx="664" cy="130" r="6" fill="#eab308"/>
  <rect x="676" y="124" width="80" height="10" rx="2" fill="#475569"/>
  <rect x="664" y="148" width="100" height="8" rx="2" fill="#334155"/>
  <rect x="664" y="162" width="80" height="8" rx="2" fill="#1e3a5f"/>
</svg>
